<?xml version="1.0" standalone="no"?>
<svg xmlns:xlink="http://www.w3.org/1999/xlink" xmlns="http://www.w3.org/2000/svg" id="svg" width="1276" height="409.82142857142856" style="height: auto;"><path fill="#7759f9" d="M0,36 a36,36 0 0 1 36,-36 h47 a1,1 0 0 1 1,1 v2 a36,36 0 0 1 -36,36 h-47 a1,1 0 0 1 -1,-1 v-2 z"></path><path fill="#480bf0" d="M0,47 a1,1 0 0 1 1,-1 h37 a1,1 0 0 1 1,1 v82 a1,1 0 0 1 -1,1 h-2 a36,36 0 0 1 -36,-36 v-47 z"></path><path fill="#a08ffd" d="M0,173 a36,36 0 0 1 36,-36 h2 a1,1 0 0 1 1,1 v37 a1,1 0 0 1 -1,1 h-37 a1,1 0 0 1 -1,-1 v-2 z"></path><path fill="#a08ffd" d="M0,183 a1,1 0 0 1 1,-1 h37 a1,1 0 0 1 1,1 v82 a1,1 0 0 1 -1,1 h-37 a1,1 0 0 1 -1,-1 v-82 z"></path><path fill="#7759f9" d="M0,309 a36,36 0 0 1 36,-36 h2 a1,1 0 0 1 1,1 v82 a1,1 0 0 1 -1,1 h-2 a36,36 0 0 1 -36,-36 v-12 z"></path><path fill="#480bf0" d="M0,365 a1,1 0 0 1 1,-1 h2 a36,36 0 0 1 36,36 v2 a1,1 0 0 1 -1,1 h-37 a1,1 0 0 1 -1,-1 v-37 z"></path><path fill="#7759f9" d="M46,47 a1,1 0 0 1 1,-1 h2 a36,36 0 0 1 36,36 v47 a1,1 0 0 1 -1,1 h-2 a36,36 0 0 1 -36,-36 v-47 z"></path><path fill="#a08ffd" d="M46,173 a36,36 0 0 1 36,-36 h47 a1,1 0 0 1 1,1 v37 a1,1 0 0 1 -1,1 h-82 a1,1 0 0 1 -1,-1 v-2 z"></path><path fill="#a08ffd" d="M46,183 a1,1 0 0 1 1,-1 h37 a1,1 0 0 1 1,1 v47 a36,36 0 0 1 -36,36 h-2 a1,1 0 0 1 -1,-1 v-82 z"></path><path fill="#7759f9" d="M46,274 a1,1 0 0 1 1,-1 h47 a36,36 0 0 1 36,36 v2 a1,1 0 0 1 -1,1 h-47 a36,36 0 0 1 -36,-36 v-2 z"></path><path fill="#7759f9" d="M46,355 a36,36 0 0 1 36,-36 h2 a1,1 0 0 1 1,1 v82 a1,1 0 0 1 -1,1 h-37 a1,1 0 0 1 -1,-1 v-47 z"></path><path fill="#480bf0" d="M91,36 a36,36 0 0 1 36,-36 h12 a36,36 0 0 1 36,36 v2 a1,1 0 0 1 -1,1 h-82 a1,1 0 0 1 -1,-1 v-2 z"></path><path fill="#480bf0" d="M91,47 a1,1 0 0 1 1,-1 h82 a1,1 0 0 1 1,1 v37 a1,1 0 0 1 -1,1 h-82 a1,1 0 0 1 -1,-1 v-37 z"></path><path fill="#7759f9" d="M91,92 a1,1 0 0 1 1,-1 h47 a36,36 0 0 1 36,36 v2 a1,1 0 0 1 -1,1 h-47 a36,36 0 0 1 -36,-36 v-2 z"></path><path fill="#7759f9" d="M91,218 a36,36 0 0 1 36,-36 h2 a1,1 0 0 1 1,1 v47 a36,36 0 0 1 -36,36 h-2 a1,1 0 0 1 -1,-1 v-47 z"></path><path fill="#480bf0" d="M91,320 a1,1 0 0 1 1,-1 h2 a36,36 0 0 1 36,36 v47 a1,1 0 0 1 -1,1 h-37 a1,1 0 0 1 -1,-1 v-82 z"></path><path fill="#a08ffd" d="M137,138 a1,1 0 0 1 1,-1 h47 a36,36 0 0 1 36,36 v2 a1,1 0 0 1 -1,1 h-47 a36,36 0 0 1 -36,-36 v-2 z"></path><path fill="#7759f9" d="M137,218 a36,36 0 0 1 36,-36 h2 a1,1 0 0 1 1,1 v82 a1,1 0 0 1 -1,1 h-2 a36,36 0 0 1 -36,-36 v-12 z"></path><path fill="#a08ffd" d="M137,274 a1,1 0 0 1 1,-1 h2 a36,36 0 0 1 36,36 v2 a1,1 0 0 1 -1,1 h-37 a1,1 0 0 1 -1,-1 v-37 z"></path><path fill="#7759f9" d="M137,320 a1,1 0 0 1 1,-1 h37 a1,1 0 0 1 1,1 v47 a36,36 0 0 1 -36,36 h-2 a1,1 0 0 1 -1,-1 v-82 z"></path><path fill="#a08ffd" d="M182,1 a1,1 0 0 1 1,-1 h82 a1,1 0 0 1 1,1 v37 a1,1 0 0 1 -1,1 h-47 a36,36 0 0 1 -36,-36 v-2 z"></path><path fill="#480bf0" d="M182,47 a1,1 0 0 1 1,-1 h82 a1,1 0 0 1 1,1 v2 a36,36 0 0 1 -36,36 h-47 a1,1 0 0 1 -1,-1 v-37 z"></path><path fill="#7759f9" d="M182,92 a1,1 0 0 1 1,-1 h82 a1,1 0 0 1 1,1 v37 a1,1 0 0 1 -1,1 h-47 a36,36 0 0 1 -36,-36 v-2 z"></path><path fill="#7759f9" d="M182,183 a1,1 0 0 1 1,-1 h82 a1,1 0 0 1 1,1 v37 a1,1 0 0 1 -1,1 h-82 a1,1 0 0 1 -1,-1 v-37 z"></path><path fill="#a08ffd" d="M182,229 a1,1 0 0 1 1,-1 h82 a1,1 0 0 1 1,1 v2 a36,36 0 0 1 -36,36 h-12 a36,36 0 0 1 -36,-36 v-2 z"></path><path fill="#480bf0" d="M182,274 a1,1 0 0 1 1,-1 h82 a1,1 0 0 1 1,1 v2 a36,36 0 0 1 -36,36 h-47 a1,1 0 0 1 -1,-1 v-37 z"></path><path fill="#480bf0" d="M182,355 a36,36 0 0 1 36,-36 h2 a1,1 0 0 1 1,1 v82 a1,1 0 0 1 -1,1 h-37 a1,1 0 0 1 -1,-1 v-47 z"></path><path fill="#a08ffd" d="M228,173 a36,36 0 0 1 36,-36 h2 a1,1 0 0 1 1,1 v37 a1,1 0 0 1 -1,1 h-37 a1,1 0 0 1 -1,-1 v-2 z"></path><path fill="#a08ffd" d="M228,320 a1,1 0 0 1 1,-1 h82 a1,1 0 0 1 1,1 v37 a1,1 0 0 1 -1,1 h-82 a1,1 0 0 1 -1,-1 v-37 z"></path><path fill="#7759f9" d="M228,400 a36,36 0 0 1 36,-36 h2 a1,1 0 0 1 1,1 v37 a1,1 0 0 1 -1,1 h-37 a1,1 0 0 1 -1,-1 v-2 z"></path><path fill="#a08ffd" d="M273,1 a1,1 0 0 1 1,-1 h82 a1,1 0 0 1 1,1 v2 a36,36 0 0 1 -36,36 h-12 a36,36 0 0 1 -36,-36 v-2 z"></path><path fill="#7759f9" d="M273,82 a36,36 0 0 1 36,-36 h2 a1,1 0 0 1 1,1 v82 a1,1 0 0 1 -1,1 h-37 a1,1 0 0 1 -1,-1 v-47 z"></path><path fill="#7759f9" d="M273,173 a36,36 0 0 1 36,-36 h2 a1,1 0 0 1 1,1 v47 a36,36 0 0 1 -36,36 h-2 a1,1 0 0 1 -1,-1 v-47 z"></path><path fill="#7759f9" d="M273,229 a1,1 0 0 1 1,-1 h2 a36,36 0 0 1 36,36 v47 a1,1 0 0 1 -1,1 h-2 a36,36 0 0 1 -36,-36 v-47 z"></path><path fill="#480bf0" d="M273,400 a36,36 0 0 1 36,-36 h2 a1,1 0 0 1 1,1 v37 a1,1 0 0 1 -1,1 h-37 a1,1 0 0 1 -1,-1 v-2 z"></path><path fill="#a08ffd" d="M319,47 a1,1 0 0 1 1,-1 h37 a1,1 0 0 1 1,1 v82 a1,1 0 0 1 -1,1 h-37 a1,1 0 0 1 -1,-1 v-82 z"></path><path fill="#480bf0" d="M319,156 a19,19 0 0 1 19,-19 h1 a19,19 0 0 1 19,19 v1 a19,19 0 0 1 -19,19 h-1 a19,19 0 0 1 -19,-19 v-1 z"></path><path fill="#480bf0" d="M319,183 a1,1 0 0 1 1,-1 h37 a1,1 0 0 1 1,1 v82 a1,1 0 0 1 -1,1 h-2 a36,36 0 0 1 -36,-36 v-47 z"></path><path fill="#a08ffd" d="M319,309 a36,36 0 0 1 36,-36 h2 a1,1 0 0 1 1,1 v82 a1,1 0 0 1 -1,1 h-37 a1,1 0 0 1 -1,-1 v-47 z"></path><path fill="#7759f9" d="M319,365 a1,1 0 0 1 1,-1 h37 a1,1 0 0 1 1,1 v2 a36,36 0 0 1 -36,36 h-2 a1,1 0 0 1 -1,-1 v-37 z"></path><path fill="#7759f9" d="M364,36 a36,36 0 0 1 36,-36 h47 a1,1 0 0 1 1,1 v2 a36,36 0 0 1 -36,36 h-47 a1,1 0 0 1 -1,-1 v-2 z"></path><path fill="#a08ffd" d="M364,47 a1,1 0 0 1 1,-1 h82 a1,1 0 0 1 1,1 v37 a1,1 0 0 1 -1,1 h-82 a1,1 0 0 1 -1,-1 v-37 z"></path><path fill="#480bf0" d="M364,92 a1,1 0 0 1 1,-1 h82 a1,1 0 0 1 1,1 v37 a1,1 0 0 1 -1,1 h-47 a36,36 0 0 1 -36,-36 v-2 z"></path><path fill="#480bf0" d="M364,138 a1,1 0 0 1 1,-1 h2 a36,36 0 0 1 36,36 v12 a36,36 0 0 1 -36,36 h-2 a1,1 0 0 1 -1,-1 v-82 z"></path><path fill="#7759f9" d="M364,229 a1,1 0 0 1 1,-1 h82 a1,1 0 0 1 1,1 v2 a36,36 0 0 1 -36,36 h-47 a1,1 0 0 1 -1,-1 v-37 z"></path><path fill="#7759f9" d="M364,274 a1,1 0 0 1 1,-1 h82 a1,1 0 0 1 1,1 v37 a1,1 0 0 1 -1,1 h-82 a1,1 0 0 1 -1,-1 v-37 z"></path><path fill="#480bf0" d="M364,320 a1,1 0 0 1 1,-1 h82 a1,1 0 0 1 1,1 v2 a36,36 0 0 1 -36,36 h-47 a1,1 0 0 1 -1,-1 v-37 z"></path><path fill="#480bf0" d="M364,400 a36,36 0 0 1 36,-36 h2 a1,1 0 0 1 1,1 v37 a1,1 0 0 1 -1,1 h-37 a1,1 0 0 1 -1,-1 v-2 z"></path><path fill="#480bf0" d="M410,138 a1,1 0 0 1 1,-1 h82 a1,1 0 0 1 1,1 v37 a1,1 0 0 1 -1,1 h-82 a1,1 0 0 1 -1,-1 v-37 z"></path><path fill="#480bf0" d="M410,183 a1,1 0 0 1 1,-1 h82 a1,1 0 0 1 1,1 v2 a36,36 0 0 1 -36,36 h-47 a1,1 0 0 1 -1,-1 v-37 z"></path><path fill="#a08ffd" d="M410,365 a1,1 0 0 1 1,-1 h37 a1,1 0 0 1 1,1 v2 a36,36 0 0 1 -36,36 h-2 a1,1 0 0 1 -1,-1 v-37 z"></path><path fill="#7759f9" d="M455,1 a1,1 0 0 1 1,-1 h37 a1,1 0 0 1 1,1 v82 a1,1 0 0 1 -1,1 h-37 a1,1 0 0 1 -1,-1 v-82 z"></path><path fill="#7759f9" d="M455,127 a36,36 0 0 1 36,-36 h47 a1,1 0 0 1 1,1 v37 a1,1 0 0 1 -1,1 h-82 a1,1 0 0 1 -1,-1 v-2 z"></path><path fill="#480bf0" d="M455,264 a36,36 0 0 1 36,-36 h47 a1,1 0 0 1 1,1 v2 a36,36 0 0 1 -36,36 h-47 a1,1 0 0 1 -1,-1 v-2 z"></path><path fill="#7759f9" d="M455,274 a1,1 0 0 1 1,-1 h82 a1,1 0 0 1 1,1 v2 a36,36 0 0 1 -36,36 h-12 a36,36 0 0 1 -36,-36 v-2 z"></path><path fill="#7759f9" d="M455,320 a1,1 0 0 1 1,-1 h37 a1,1 0 0 1 1,1 v47 a36,36 0 0 1 -36,36 h-2 a1,1 0 0 1 -1,-1 v-82 z"></path><path fill="#480bf0" d="M501,1 a1,1 0 0 1 1,-1 h47 a36,36 0 0 1 36,36 v2 a1,1 0 0 1 -1,1 h-82 a1,1 0 0 1 -1,-1 v-37 z"></path><path fill="#a08ffd" d="M501,47 a1,1 0 0 1 1,-1 h82 a1,1 0 0 1 1,1 v2 a36,36 0 0 1 -36,36 h-12 a36,36 0 0 1 -36,-36 v-2 z"></path><path fill="#a08ffd" d="M501,173 a36,36 0 0 1 36,-36 h2 a1,1 0 0 1 1,1 v82 a1,1 0 0 1 -1,1 h-2 a36,36 0 0 1 -36,-36 v-12 z"></path><path fill="#480bf0" d="M501,320 a1,1 0 0 1 1,-1 h82 a1,1 0 0 1 1,1 v2 a36,36 0 0 1 -36,36 h-12 a36,36 0 0 1 -36,-36 v-2 z"></path><path fill="#7759f9" d="M501,383 a19,19 0 0 1 19,-19 h1 a19,19 0 0 1 19,19 v1 a19,19 0 0 1 -19,19 h-1 a19,19 0 0 1 -19,-19 v-1 z"></path><path fill="#a08ffd" d="M546,127 a36,36 0 0 1 36,-36 h2 a1,1 0 0 1 1,1 v82 a1,1 0 0 1 -1,1 h-37 a1,1 0 0 1 -1,-1 v-47 z"></path><path fill="#a08ffd" d="M546,201 a19,19 0 0 1 19,-19 h1 a19,19 0 0 1 19,19 v1 a19,19 0 0 1 -19,19 h-1 a19,19 0 0 1 -19,-19 v-1 z"></path><path fill="#480bf0" d="M546,264 a36,36 0 0 1 36,-36 h2 a1,1 0 0 1 1,1 v82 a1,1 0 0 1 -1,1 h-2 a36,36 0 0 1 -36,-36 v-12 z"></path><path fill="#7759f9" d="M546,365 a1,1 0 0 1 1,-1 h37 a1,1 0 0 1 1,1 v2 a36,36 0 0 1 -36,36 h-2 a1,1 0 0 1 -1,-1 v-37 z"></path><path fill="#480bf0" d="M592,36 a36,36 0 0 1 36,-36 h47 a1,1 0 0 1 1,1 v2 a36,36 0 0 1 -36,36 h-47 a1,1 0 0 1 -1,-1 v-2 z"></path><path fill="#a08ffd" d="M592,47 a1,1 0 0 1 1,-1 h2 a36,36 0 0 1 36,36 v12 a36,36 0 0 1 -36,36 h-2 a1,1 0 0 1 -1,-1 v-82 z"></path><path fill="#a08ffd" d="M592,173 a36,36 0 0 1 36,-36 h2 a1,1 0 0 1 1,1 v37 a1,1 0 0 1 -1,1 h-37 a1,1 0 0 1 -1,-1 v-2 z"></path><path fill="#7759f9" d="M592,183 a1,1 0 0 1 1,-1 h2 a36,36 0 0 1 36,36 v47 a1,1 0 0 1 -1,1 h-37 a1,1 0 0 1 -1,-1 v-82 z"></path><path fill="#480bf0" d="M592,274 a1,1 0 0 1 1,-1 h37 a1,1 0 0 1 1,1 v37 a1,1 0 0 1 -1,1 h-37 a1,1 0 0 1 -1,-1 v-37 z"></path><path fill="#480bf0" d="M592,320 a1,1 0 0 1 1,-1 h37 a1,1 0 0 1 1,1 v82 a1,1 0 0 1 -1,1 h-2 a36,36 0 0 1 -36,-36 v-47 z"></path><path fill="#a08ffd" d="M638,82 a36,36 0 0 1 36,-36 h2 a1,1 0 0 1 1,1 v82 a1,1 0 0 1 -1,1 h-37 a1,1 0 0 1 -1,-1 v-47 z"></path><path fill="#a08ffd" d="M638,138 a1,1 0 0 1 1,-1 h37 a1,1 0 0 1 1,1 v47 a36,36 0 0 1 -36,36 h-2 a1,1 0 0 1 -1,-1 v-82 z"></path><path fill="#480bf0" d="M638,264 a36,36 0 0 1 36,-36 h2 a1,1 0 0 1 1,1 v82 a1,1 0 0 1 -1,1 h-37 a1,1 0 0 1 -1,-1 v-47 z"></path><path fill="#a08ffd" d="M638,320 a1,1 0 0 1 1,-1 h82 a1,1 0 0 1 1,1 v2 a36,36 0 0 1 -36,36 h-47 a1,1 0 0 1 -1,-1 v-37 z"></path><path fill="#480bf0" d="M638,365 a1,1 0 0 1 1,-1 h37 a1,1 0 0 1 1,1 v37 a1,1 0 0 1 -1,1 h-37 a1,1 0 0 1 -1,-1 v-37 z"></path><path fill="#a08ffd" d="M683,1 a1,1 0 0 1 1,-1 h82 a1,1 0 0 1 1,1 v2 a36,36 0 0 1 -36,36 h-47 a1,1 0 0 1 -1,-1 v-37 z"></path><path fill="#a08ffd" d="M683,82 a36,36 0 0 1 36,-36 h2 a1,1 0 0 1 1,1 v82 a1,1 0 0 1 -1,1 h-37 a1,1 0 0 1 -1,-1 v-47 z"></path><path fill="#7759f9" d="M683,138 a1,1 0 0 1 1,-1 h2 a36,36 0 0 1 36,36 v47 a1,1 0 0 1 -1,1 h-2 a36,36 0 0 1 -36,-36 v-47 z"></path><path fill="#7759f9" d="M683,264 a36,36 0 0 1 36,-36 h12 a36,36 0 0 1 36,36 v2 a1,1 0 0 1 -1,1 h-82 a1,1 0 0 1 -1,-1 v-2 z"></path><path fill="#480bf0" d="M683,309 a36,36 0 0 1 36,-36 h2 a1,1 0 0 1 1,1 v37 a1,1 0 0 1 -1,1 h-37 a1,1 0 0 1 -1,-1 v-2 z"></path><path fill="#a08ffd" d="M683,400 a36,36 0 0 1 36,-36 h2 a1,1 0 0 1 1,1 v37 a1,1 0 0 1 -1,1 h-37 a1,1 0 0 1 -1,-1 v-2 z"></path><path fill="#480bf0" d="M729,47 a1,1 0 0 1 1,-1 h82 a1,1 0 0 1 1,1 v37 a1,1 0 0 1 -1,1 h-47 a36,36 0 0 1 -36,-36 v-2 z"></path><path fill="#7759f9" d="M729,127 a36,36 0 0 1 36,-36 h47 a1,1 0 0 1 1,1 v37 a1,1 0 0 1 -1,1 h-82 a1,1 0 0 1 -1,-1 v-2 z"></path><path fill="#7759f9" d="M729,138 a1,1 0 0 1 1,-1 h37 a1,1 0 0 1 1,1 v82 a1,1 0 0 1 -1,1 h-37 a1,1 0 0 1 -1,-1 v-82 z"></path><path fill="#7759f9" d="M729,309 a36,36 0 0 1 36,-36 h2 a1,1 0 0 1 1,1 v82 a1,1 0 0 1 -1,1 h-37 a1,1 0 0 1 -1,-1 v-47 z"></path><path fill="#480bf0" d="M729,365 a1,1 0 0 1 1,-1 h37 a1,1 0 0 1 1,1 v2 a36,36 0 0 1 -36,36 h-2 a1,1 0 0 1 -1,-1 v-37 z"></path><path fill="#7759f9" d="M774,36 a36,36 0 0 1 36,-36 h12 a36,36 0 0 1 36,36 v2 a1,1 0 0 1 -1,1 h-82 a1,1 0 0 1 -1,-1 v-2 z"></path><path fill="#a08ffd" d="M774,138 a1,1 0 0 1 1,-1 h82 a1,1 0 0 1 1,1 v37 a1,1 0 0 1 -1,1 h-82 a1,1 0 0 1 -1,-1 v-37 z"></path><path fill="#7759f9" d="M774,183 a1,1 0 0 1 1,-1 h82 a1,1 0 0 1 1,1 v2 a36,36 0 0 1 -36,36 h-47 a1,1 0 0 1 -1,-1 v-37 z"></path><path fill="#a08ffd" d="M774,229 a1,1 0 0 1 1,-1 h82 a1,1 0 0 1 1,1 v37 a1,1 0 0 1 -1,1 h-47 a36,36 0 0 1 -36,-36 v-2 z"></path><path fill="#7759f9" d="M774,309 a36,36 0 0 1 36,-36 h2 a1,1 0 0 1 1,1 v82 a1,1 0 0 1 -1,1 h-2 a36,36 0 0 1 -36,-36 v-12 z"></path><path fill="#7759f9" d="M774,365 a1,1 0 0 1 1,-1 h37 a1,1 0 0 1 1,1 v2 a36,36 0 0 1 -36,36 h-2 a1,1 0 0 1 -1,-1 v-37 z"></path><path fill="#480bf0" d="M820,82 a36,36 0 0 1 36,-36 h12 a36,36 0 0 1 36,36 v2 a1,1 0 0 1 -1,1 h-82 a1,1 0 0 1 -1,-1 v-2 z"></path><path fill="#7759f9" d="M820,92 a1,1 0 0 1 1,-1 h82 a1,1 0 0 1 1,1 v37 a1,1 0 0 1 -1,1 h-47 a36,36 0 0 1 -36,-36 v-2 z"></path><path fill="#a08ffd" d="M820,309 a36,36 0 0 1 36,-36 h2 a1,1 0 0 1 1,1 v82 a1,1 0 0 1 -1,1 h-2 a36,36 0 0 1 -36,-36 v-12 z"></path><path fill="#a08ffd" d="M820,365 a1,1 0 0 1 1,-1 h2 a36,36 0 0 1 36,36 v2 a1,1 0 0 1 -1,1 h-37 a1,1 0 0 1 -1,-1 v-37 z"></path><path fill="#a08ffd" d="M865,1 a1,1 0 0 1 1,-1 h82 a1,1 0 0 1 1,1 v2 a36,36 0 0 1 -36,36 h-47 a1,1 0 0 1 -1,-1 v-37 z"></path><path fill="#a08ffd" d="M865,173 a36,36 0 0 1 36,-36 h47 a1,1 0 0 1 1,1 v2 a36,36 0 0 1 -36,36 h-47 a1,1 0 0 1 -1,-1 v-2 z"></path><path fill="#480bf0" d="M865,183 a1,1 0 0 1 1,-1 h82 a1,1 0 0 1 1,1 v2 a36,36 0 0 1 -36,36 h-12 a36,36 0 0 1 -36,-36 v-2 z"></path><path fill="#7759f9" d="M865,229 a1,1 0 0 1 1,-1 h47 a36,36 0 0 1 36,36 v2 a1,1 0 0 1 -1,1 h-47 a36,36 0 0 1 -36,-36 v-2 z"></path><path fill="#7759f9" d="M865,309 a36,36 0 0 1 36,-36 h2 a1,1 0 0 1 1,1 v82 a1,1 0 0 1 -1,1 h-2 a36,36 0 0 1 -36,-36 v-12 z"></path><path fill="#a08ffd" d="M865,365 a1,1 0 0 1 1,-1 h37 a1,1 0 0 1 1,1 v37 a1,1 0 0 1 -1,1 h-2 a36,36 0 0 1 -36,-36 v-2 z"></path><path fill="#a08ffd" d="M911,47 a1,1 0 0 1 1,-1 h47 a36,36 0 0 1 36,36 v2 a1,1 0 0 1 -1,1 h-47 a36,36 0 0 1 -36,-36 v-2 z"></path><path fill="#7759f9" d="M911,92 a1,1 0 0 1 1,-1 h37 a1,1 0 0 1 1,1 v37 a1,1 0 0 1 -1,1 h-37 a1,1 0 0 1 -1,-1 v-37 z"></path><path fill="#a08ffd" d="M911,309 a36,36 0 0 1 36,-36 h47 a1,1 0 0 1 1,1 v37 a1,1 0 0 1 -1,1 h-82 a1,1 0 0 1 -1,-1 v-2 z"></path><path fill="#7759f9" d="M911,320 a1,1 0 0 1 1,-1 h2 a36,36 0 0 1 36,36 v12 a36,36 0 0 1 -36,36 h-2 a1,1 0 0 1 -1,-1 v-82 z"></path><path fill="#7759f9" d="M956,1 a1,1 0 0 1 1,-1 h47 a36,36 0 0 1 36,36 v2 a1,1 0 0 1 -1,1 h-47 a36,36 0 0 1 -36,-36 v-2 z"></path><path fill="#7759f9" d="M956,92 a1,1 0 0 1 1,-1 h47 a36,36 0 0 1 36,36 v2 a1,1 0 0 1 -1,1 h-47 a36,36 0 0 1 -36,-36 v-2 z"></path><path fill="#a08ffd" d="M956,138 a1,1 0 0 1 1,-1 h2 a36,36 0 0 1 36,36 v47 a1,1 0 0 1 -1,1 h-2 a36,36 0 0 1 -36,-36 v-47 z"></path><path fill="#a08ffd" d="M956,229 a1,1 0 0 1 1,-1 h82 a1,1 0 0 1 1,1 v2 a36,36 0 0 1 -36,36 h-47 a1,1 0 0 1 -1,-1 v-37 z"></path><path fill="#7759f9" d="M956,320 a1,1 0 0 1 1,-1 h37 a1,1 0 0 1 1,1 v82 a1,1 0 0 1 -1,1 h-2 a36,36 0 0 1 -36,-36 v-47 z"></path><path fill="#480bf0" d="M1002,47 a1,1 0 0 1 1,-1 h47 a36,36 0 0 1 36,36 v2 a1,1 0 0 1 -1,1 h-47 a36,36 0 0 1 -36,-36 v-2 z"></path><path fill="#a08ffd" d="M1002,138 a1,1 0 0 1 1,-1 h82 a1,1 0 0 1 1,1 v37 a1,1 0 0 1 -1,1 h-47 a36,36 0 0 1 -36,-36 v-2 z"></path><path fill="#480bf0" d="M1002,183 a1,1 0 0 1 1,-1 h47 a36,36 0 0 1 36,36 v2 a1,1 0 0 1 -1,1 h-82 a1,1 0 0 1 -1,-1 v-37 z"></path><path fill="#7759f9" d="M1002,309 a36,36 0 0 1 36,-36 h12 a36,36 0 0 1 36,36 v2 a1,1 0 0 1 -1,1 h-82 a1,1 0 0 1 -1,-1 v-2 z"></path><path fill="#7759f9" d="M1002,338 a19,19 0 0 1 19,-19 h1 a19,19 0 0 1 19,19 v1 a19,19 0 0 1 -19,19 h-1 a19,19 0 0 1 -19,-19 v-1 z"></path><path fill="#7759f9" d="M1002,365 a1,1 0 0 1 1,-1 h37 a1,1 0 0 1 1,1 v2 a36,36 0 0 1 -36,36 h-2 a1,1 0 0 1 -1,-1 v-37 z"></path><path fill="#a08ffd" d="M1047,1 a1,1 0 0 1 1,-1 h37 a1,1 0 0 1 1,1 v37 a1,1 0 0 1 -1,1 h-37 a1,1 0 0 1 -1,-1 v-37 z"></path><path fill="#480bf0" d="M1047,127 a36,36 0 0 1 36,-36 h2 a1,1 0 0 1 1,1 v37 a1,1 0 0 1 -1,1 h-37 a1,1 0 0 1 -1,-1 v-2 z"></path><path fill="#7759f9" d="M1047,229 a1,1 0 0 1 1,-1 h47 a36,36 0 0 1 36,36 v2 a1,1 0 0 1 -1,1 h-47 a36,36 0 0 1 -36,-36 v-2 z"></path><path fill="#480bf0" d="M1047,355 a36,36 0 0 1 36,-36 h2 a1,1 0 0 1 1,1 v82 a1,1 0 0 1 -1,1 h-37 a1,1 0 0 1 -1,-1 v-47 z"></path><path fill="#7759f9" d="M1093,36 a36,36 0 0 1 36,-36 h47 a1,1 0 0 1 1,1 v37 a1,1 0 0 1 -1,1 h-82 a1,1 0 0 1 -1,-1 v-2 z"></path><path fill="#7759f9" d="M1093,47 a1,1 0 0 1 1,-1 h47 a36,36 0 0 1 36,36 v2 a1,1 0 0 1 -1,1 h-47 a36,36 0 0 1 -36,-36 v-2 z"></path><path fill="#480bf0" d="M1093,127 a36,36 0 0 1 36,-36 h2 a1,1 0 0 1 1,1 v82 a1,1 0 0 1 -1,1 h-2 a36,36 0 0 1 -36,-36 v-12 z"></path><path fill="#480bf0" d="M1093,183 a1,1 0 0 1 1,-1 h47 a36,36 0 0 1 36,36 v2 a1,1 0 0 1 -1,1 h-47 a36,36 0 0 1 -36,-36 v-2 z"></path><path fill="#a08ffd" d="M1093,274 a1,1 0 0 1 1,-1 h47 a36,36 0 0 1 36,36 v2 a1,1 0 0 1 -1,1 h-47 a36,36 0 0 1 -36,-36 v-2 z"></path><path fill="#a08ffd" d="M1093,355 a36,36 0 0 1 36,-36 h47 a1,1 0 0 1 1,1 v2 a36,36 0 0 1 -36,36 h-47 a1,1 0 0 1 -1,-1 v-2 z"></path><path fill="#a08ffd" d="M1093,400 a36,36 0 0 1 36,-36 h2 a1,1 0 0 1 1,1 v37 a1,1 0 0 1 -1,1 h-37 a1,1 0 0 1 -1,-1 v-2 z"></path><path fill="#7759f9" d="M1138,92 a1,1 0 0 1 1,-1 h82 a1,1 0 0 1 1,1 v37 a1,1 0 0 1 -1,1 h-47 a36,36 0 0 1 -36,-36 v-2 z"></path><path fill="#480bf0" d="M1138,138 a1,1 0 0 1 1,-1 h82 a1,1 0 0 1 1,1 v2 a36,36 0 0 1 -36,36 h-47 a1,1 0 0 1 -1,-1 v-37 z"></path><path fill="#a08ffd" d="M1138,229 a1,1 0 0 1 1,-1 h47 a36,36 0 0 1 36,36 v2 a1,1 0 0 1 -1,1 h-47 a36,36 0 0 1 -36,-36 v-2 z"></path><path fill="#480bf0" d="M1138,383 a19,19 0 0 1 19,-19 h1 a19,19 0 0 1 19,19 v1 a19,19 0 0 1 -19,19 h-1 a19,19 0 0 1 -19,-19 v-1 z"></path><path fill="#7759f9" d="M1184,36 a36,36 0 0 1 36,-36 h2 a1,1 0 0 1 1,1 v47 a36,36 0 0 1 -36,36 h-2 a1,1 0 0 1 -1,-1 v-47 z"></path><path fill="#7759f9" d="M1184,218 a36,36 0 0 1 36,-36 h12 a36,36 0 0 1 36,36 v2 a1,1 0 0 1 -1,1 h-82 a1,1 0 0 1 -1,-1 v-2 z"></path><path fill="#480bf0" d="M1184,274 a1,1 0 0 1 1,-1 h82 a1,1 0 0 1 1,1 v37 a1,1 0 0 1 -1,1 h-47 a36,36 0 0 1 -36,-36 v-2 z"></path><path fill="#a08ffd" d="M1184,320 a1,1 0 0 1 1,-1 h82 a1,1 0 0 1 1,1 v2 a36,36 0 0 1 -36,36 h-12 a36,36 0 0 1 -36,-36 v-2 z"></path><path fill="#7759f9" d="M1184,400 a36,36 0 0 1 36,-36 h2 a1,1 0 0 1 1,1 v37 a1,1 0 0 1 -1,1 h-37 a1,1 0 0 1 -1,-1 v-2 z"></path><path fill="#a08ffd" d="M1229,36 a36,36 0 0 1 36,-36 h2 a1,1 0 0 1 1,1 v37 a1,1 0 0 1 -1,1 h-37 a1,1 0 0 1 -1,-1 v-2 z"></path><path fill="#480bf0" d="M1229,47 a1,1 0 0 1 1,-1 h37 a1,1 0 0 1 1,1 v37 a1,1 0 0 1 -1,1 h-37 a1,1 0 0 1 -1,-1 v-37 z"></path><path fill="#a08ffd" d="M1229,110 a19,19 0 0 1 19,-19 h1 a19,19 0 0 1 19,19 v1 a19,19 0 0 1 -19,19 h-1 a19,19 0 0 1 -19,-19 v-1 z"></path><path fill="#a08ffd" d="M1229,173 a36,36 0 0 1 36,-36 h2 a1,1 0 0 1 1,1 v37 a1,1 0 0 1 -1,1 h-37 a1,1 0 0 1 -1,-1 v-2 z"></path><path fill="#a08ffd" d="M1229,247 a19,19 0 0 1 19,-19 h1 a19,19 0 0 1 19,19 v1 a19,19 0 0 1 -19,19 h-1 a19,19 0 0 1 -19,-19 v-1 z"></path><path fill="#480bf0" d="M1229,383 a19,19 0 0 1 19,-19 h1 a19,19 0 0 1 19,19 v1 a19,19 0 0 1 -19,19 h-1 a19,19 0 0 1 -19,-19 v-1 z"></path></svg>